<svg width="256" height="256" viewBox="0 0 256 256" fill="none" xmlns="http://www.w3.org/2000/svg">
<path d="M3.5 29.5H252.5V240.5C252.5 247.127 247.127 252.5 240.5 252.5H15.5C8.87259 252.5 3.5 247.127 3.5 240.5V29.5Z" fill="white" stroke="#616162" stroke-width="5"/>
<path fill-rule="evenodd" clip-rule="evenodd" d="M163.705 50.9544C146.713 53.7669 142.729 72.9856 137.573 95.134C136.802 100.439 114.943 134.268 112.143 140.134C104.824 151.868 78.7017 170.454 75.1115 175.173C84.3869 181.307 96.7552 192.558 102.065 201.775C104.755 206.444 115.052 225.237 117.182 229.431C129.135 223.103 151.145 200.693 159.018 189.822C163.632 183.451 176.713 172.712 185.619 170.251C185.619 170.251 196.869 169.431 215.619 179.509C208.172 157.886 192.819 110.174 189.369 97.7122C189.369 97.7122 175.307 50.6027 163.705 50.9544Z" fill="#F57729"/>
<path d="M72.7 175.3C72.7 175.3 98.5985 153.497 103.9 148.9L83.1 133.7L37.9 152.5L72.7 175.3ZM83.5 132.9L104.3 148.5C108.091 143.465 127.433 114.469 133.9 104.1C137.421 98.455 140.7 86.5001 140.7 86.5001C141.5 79.3001 143.5 66.9001 143.5 66.9001C141.553 68.5691 135.354 78.5093 131.487 84.7113C129.793 87.4278 128.546 89.4271 128.3 89.7001C120.481 98.9153 110.713 105.986 104.847 110.232C102.31 112.068 100.504 113.376 99.9 114.1C97.8744 116.793 86.712 129.536 83.5 132.9Z" fill="#068CFC"/>
<path d="M72.7 175.3C72.7 175.3 98.5985 153.497 103.9 148.9L83.1 133.7L37.9 152.5L72.7 175.3ZM83.5 132.9L104.3 148.5C108.091 143.465 127.433 114.469 133.9 104.1C137.421 98.455 140.7 86.5001 140.7 86.5001C141.5 79.3001 143.5 66.9001 143.5 66.9001C141.553 68.5691 135.354 78.5093 131.487 84.7113C129.793 87.4278 128.546 89.4271 128.3 89.7001C120.481 98.9153 110.713 105.986 104.847 110.232C102.31 112.068 100.504 113.376 99.9 114.1C97.8744 116.793 86.712 129.536 83.5 132.9Z" stroke="#068CFC"/>
<path d="M37.5 152.81L36.6112 150.474C35.7451 150.803 35.1323 151.584 35.0188 152.504C34.9053 153.424 35.3098 154.331 36.0698 154.861L37.5 152.81ZM82.0749 133.781L83.8124 135.578L83.8124 135.578L82.0749 133.781ZM96.0849 118.615L98.0827 120.118L98.0827 120.118L96.0849 118.615ZM111.934 105.485L110.558 103.397L110.558 103.397L111.934 105.485ZM134.292 80.8648L136.473 82.087L136.473 82.087L134.292 80.8648ZM191.462 103.296L193.872 102.629L193.872 102.629L191.462 103.296ZM217.5 181.807L216.099 183.877C216.992 184.482 218.171 184.445 219.025 183.788C219.879 183.13 220.216 181.999 219.86 180.982L217.5 181.807ZM159.481 187.825L161.506 189.292L161.506 189.292L159.481 187.825ZM132.311 220.378L130.618 218.539L130.618 218.539L132.311 220.378ZM116.462 230.5L114.316 231.783C114.885 232.734 116.013 233.198 117.086 232.921L116.462 230.5ZM83.9151 182.901L82.536 184.986L82.536 184.986L83.9151 182.901ZM71.6172 172.999C70.5292 173.849 70.3365 175.421 71.1867 176.509C72.0369 177.596 73.608 177.789 74.6959 176.939L71.6172 172.999ZM106.836 144.878L104.846 143.364L104.846 143.364L106.836 144.878ZM140.373 85.3607L142.847 85.7199L142.847 85.7199L140.373 85.3607ZM38.3888 155.147C45.7215 152.358 56.2678 148.192 65.3005 144.419C69.8144 142.534 73.9715 140.738 77.1674 139.255C78.7628 138.516 80.1448 137.842 81.2221 137.267C82.1916 136.749 83.2093 136.161 83.8124 135.578L80.3374 131.983C80.3739 131.948 80.2998 132.021 79.9944 132.213C79.7205 132.385 79.3463 132.6 78.8664 132.856C77.9081 133.368 76.6218 133.997 75.0639 134.719C71.9534 136.162 67.8642 137.93 63.3734 139.806C54.397 143.555 43.9011 147.701 36.6112 150.474L38.3888 155.147ZM83.8124 135.578C86.9296 132.565 94.7489 124.55 98.0827 120.118L94.0871 117.112C91.0122 121.2 83.4466 128.978 80.3374 131.983L83.8124 135.578ZM98.0827 120.118C101.599 115.444 107.018 111.718 113.31 107.572L110.558 103.397C104.397 107.458 98.2113 111.63 94.0871 117.112L98.0827 120.118ZM113.31 107.572C116.709 105.332 121.56 100.609 125.924 95.773C130.302 90.9229 134.491 85.624 136.473 82.087L132.112 79.6426C130.414 82.671 126.538 87.6303 122.212 92.423C117.874 97.2297 113.385 101.534 110.558 103.397L113.31 107.572ZM136.473 82.087C138.302 78.8234 142.579 71.3685 147.712 64.753C150.282 61.4404 153.001 58.4263 155.668 56.2627C158.394 54.0508 160.734 53 162.594 53V48C159.006 48 155.544 49.9242 152.517 52.3798C149.431 54.8838 146.445 58.2299 143.762 61.6878C138.388 68.6134 133.962 76.3408 132.112 79.6426L136.473 82.087ZM162.594 53C163.203 53 164.043 53.2482 165.147 54.0206C166.247 54.7897 167.462 55.9783 168.761 57.5884C171.361 60.8091 174.047 65.3967 176.638 70.7106C181.811 81.3154 186.396 94.3652 189.053 103.963L193.872 102.629C191.152 92.8045 186.467 79.4563 181.132 68.5187C178.471 63.0613 175.593 58.0916 172.652 54.4479C171.181 52.6257 169.631 51.0552 168.013 49.9233C166.399 48.7947 164.569 48 162.594 48V53ZM189.053 103.963C193.382 119.6 208.265 162.969 215.14 182.632L219.86 180.982C212.961 161.252 198.146 118.068 193.872 102.629L189.053 103.963ZM218.901 179.736C215.989 177.766 211.173 174.831 206.109 172.376C201.165 169.98 195.542 167.818 191.179 167.818V172.818C194.289 172.818 198.995 174.485 203.929 176.876C208.742 179.209 213.351 182.018 216.099 183.877L218.901 179.736ZM191.179 167.818C185.997 167.818 179.655 169.614 173.643 172.752C167.606 175.902 161.69 180.513 157.456 186.359L161.506 189.292C165.197 184.195 170.46 180.053 175.956 177.184C181.477 174.303 187.021 172.818 191.179 172.818V167.818ZM157.456 186.359C149.553 197.271 136.37 213.244 130.618 218.539L134.004 222.218C140.139 216.571 153.56 200.263 161.506 189.292L157.456 186.359ZM130.618 218.539C124.782 223.912 119.489 227.138 115.838 228.079L117.086 232.921C121.926 231.673 127.954 227.788 134.004 222.218L130.618 218.539ZM118.608 229.217C116.823 226.23 114.921 222.472 112.77 218.238C110.637 214.037 108.283 209.416 105.645 204.837C100.399 195.731 93.864 186.483 85.2941 180.816L82.536 184.986C90.0982 189.988 96.1575 198.384 101.313 207.333C103.875 211.782 106.174 216.291 108.312 220.502C110.433 224.679 112.423 228.614 114.316 231.783L118.608 229.217ZM85.2941 180.816C70.5637 171.074 48.0745 157.138 38.9302 150.76L36.0698 154.861C45.2274 161.248 68.104 175.442 82.536 184.986L85.2941 180.816ZM74.6959 176.939C79.1563 173.453 86.1949 167.763 92.8369 162.004C99.4098 156.304 105.813 150.351 108.826 146.391L104.846 143.364C102.198 146.845 96.1959 152.473 89.5612 158.226C82.9957 163.92 76.0247 169.555 71.6172 172.999L74.6959 176.939ZM108.826 146.391C112.385 141.712 120.181 131.176 127.418 119.573C131.037 113.771 134.537 107.669 137.303 101.875C140.051 96.1169 142.153 90.504 142.847 85.7199L137.899 85.0015C137.312 89.0415 135.465 94.1177 132.791 99.7207C130.134 105.287 126.737 111.217 123.176 116.926C116.054 128.344 108.362 138.742 104.846 143.364L108.826 146.391ZM142.847 85.7199C145.229 69.3108 149.492 61.0291 154.888 56.9989L151.896 52.9929C144.839 58.2636 140.327 68.2757 137.899 85.0015L142.847 85.7199ZM81.0163 134.583L101.62 149.715L104.58 145.685L83.976 130.553L81.0163 134.583Z" fill="#333333"/>
<path d="M23.5 49.5L40.5 63.5L23.5 77.5M42.5 49.5L59.5 63.5L42.5 77.5" stroke="#616162" stroke-width="5" stroke-linecap="round" stroke-linejoin="round"/>
<path d="M3.5 29.5H252.5V15.5C252.5 8.87259 247.127 3.5 240.5 3.5H15.5C8.87259 3.5 3.5 8.87258 3.5 15.5L3.5 29.5Z" fill="#B4DEFF" stroke="#1656A7" stroke-width="5"/>
</svg>
