<svg width="24" height="24" viewBox="0 0 24 24" fill="none" xmlns="http://www.w3.org/2000/svg">
<rect width="24" height="24" fill="white"/>
<path d="M13.1321 0.5H2.5C1.39543 0.5 0.5 1.39543 0.5 2.5V21.5C0.5 22.6046 1.39543 23.5 2.5 23.5H16.5C17.6046 23.5 18.5 22.6046 18.5 21.5V6.26413C18.5 5.77206 18.3186 5.29725 17.9905 4.93054L14.6226 1.16641C14.2432 0.742364 13.7011 0.5 13.1321 0.5Z" fill="white" stroke="#616161" stroke-linecap="round"/>
<path fill-rule="evenodd" clip-rule="evenodd" d="M10.4653 6.32589C10.2211 6.60672 9.99793 7.12253 9.85895 8.0799C9.80333 8.46305 9.63875 8.89555 9.43652 9.31921C9.23127 9.7492 8.97319 10.1987 8.70896 10.6223C8.18038 11.4697 7.61216 12.2376 7.35287 12.5785C7.11693 12.8886 6.63414 13.335 6.16255 13.744C5.85841 14.0077 5.54312 14.2692 5.2702 14.4901C5.38117 14.5624 5.48865 14.6329 5.59136 14.7008C6.26124 15.1438 6.75728 15.8547 7.14074 16.5203C7.33502 16.8576 7.50784 17.1969 7.66167 17.4999L7.6691 17.5145C7.74925 17.6723 7.82321 17.818 7.89285 17.95C8.07735 17.845 8.30355 17.6808 8.55412 17.4501C8.95023 17.0855 9.89031 15.9488 10.4589 15.1637C10.7921 14.7036 11.2525 14.3469 11.7157 14.1051C12.1748 13.8656 12.6732 13.7201 13.0992 13.7201C13.4521 13.7201 13.8694 13.8777 14.2142 14.0396C13.6763 12.4779 12.9512 10.3286 12.702 9.42861C12.5133 8.74688 12.1872 7.81948 11.8218 7.0704C11.6382 6.69387 11.4539 6.38186 11.2834 6.17064C11.1982 6.06508 11.1274 5.99855 11.0742 5.96134C11.0488 5.94356 11.033 5.9363 11.026 5.93359C10.9746 5.93728 10.865 5.97344 10.6937 6.11243C10.6718 6.13022 10.6497 6.14902 10.6274 6.16877L10.6297 6.17182C10.6148 6.18294 10.5999 6.19473 10.5851 6.20724C10.5455 6.24409 10.5055 6.28376 10.4653 6.32589Z" fill="#F57729"/>
<path fill-rule="evenodd" clip-rule="evenodd" d="M4.50225 13.9951C4.80901 13.751 5.2116 13.4213 5.59449 13.0893C5.78979 12.9199 5.97375 12.7552 6.13501 12.6041L5.28273 11.9862C5.28067 11.9873 5.27864 11.9884 5.27665 11.9895C5.19283 12.0343 5.08818 12.0852 4.97106 12.1395C4.73592 12.2485 4.43225 12.3797 4.10509 12.5163C3.72938 12.6733 3.31783 12.8395 2.93481 12.9908C3.24543 13.1924 3.60462 13.4217 3.97477 13.658C4.14946 13.7696 4.32664 13.8827 4.50225 13.9951ZM5.94519 11.396L6.73006 11.965C7.00388 11.6013 7.50626 10.9126 7.97333 10.1637C8.22763 9.75603 8.46771 9.33648 8.65411 8.94598C8.68757 8.87588 8.71888 8.80758 8.74796 8.74121C8.69054 8.80807 8.63213 8.87438 8.57369 8.93912C8.25713 9.28987 7.88857 9.65209 7.61408 9.83298C7.15314 10.1368 6.80047 10.3833 6.57726 10.68C6.43096 10.8745 6.17717 11.1531 5.94519 11.396Z" fill="#068CFC"/>
<path d="M2 12.8891L1.82223 12.4217C1.64902 12.4876 1.52646 12.6439 1.50376 12.8278C1.48107 13.0118 1.56196 13.1931 1.71395 13.2992L2 12.8891ZM5.2193 11.5147L5.5668 11.8742L5.5668 11.8742L5.2193 11.5147ZM6.23113 10.4194L5.83158 10.1189L5.83158 10.1189L6.23113 10.4194ZM8.99056 7.69301L8.55439 7.44858L8.55439 7.44858L8.99056 7.69301ZM13.1195 9.31305L13.6014 9.17964L13.6014 9.17964L13.1195 9.31305ZM15 14.9833L14.7198 15.3974C14.8984 15.5182 15.1342 15.511 15.305 15.3794C15.4758 15.2479 15.5431 15.0217 15.472 14.8182L15 14.9833ZM10.8097 15.4179L10.4048 15.1247L10.4048 15.1247L10.8097 15.4179ZM8.84748 17.769L8.50885 17.4011L8.50885 17.4011L8.84748 17.769ZM7.70283 18.5L7.27366 18.7565C7.38742 18.9469 7.61292 19.0395 7.82763 18.9842L7.70283 18.5ZM5.3522 15.0623L5.07639 15.4794L5.07639 15.4794L5.3522 15.0623ZM4.26754 14.0955C4.04996 14.2655 4.01141 14.5798 4.18145 14.7973C4.35148 15.0149 4.66571 15.0535 4.88329 14.8834L4.26754 14.0955ZM7.00781 12.3162L7.40576 12.6189L7.40576 12.6189L7.00781 12.3162ZM9.42994 8.01775L9.92475 8.08959L9.92475 8.08959L9.42994 8.01775ZM2.17777 13.3564C2.71008 13.1539 3.47498 12.8518 4.13094 12.5778C4.45841 12.441 4.76298 12.3095 4.99926 12.1999C5.11688 12.1454 5.22281 12.0939 5.30822 12.0482C5.37205 12.0141 5.48596 11.9524 5.5668 11.8742L4.8718 11.1552C4.90767 11.1205 4.92025 11.1218 4.83706 11.1662C4.77546 11.1991 4.68867 11.2417 4.57855 11.2927C4.35937 11.3944 4.06837 11.5202 3.74551 11.6551C3.10081 11.9244 2.346 12.2225 1.82223 12.4217L2.17777 13.3564ZM5.5668 11.8742C5.79244 11.6561 6.37339 11.062 6.63069 10.72L5.83158 10.1189C5.62603 10.3921 5.09584 10.9387 4.8718 11.1552L5.5668 11.8742ZM6.63069 10.72C6.84579 10.4341 7.18825 10.1935 7.65092 9.8886L7.10065 9.05362C6.66395 9.34141 6.16827 9.67131 5.83158 10.1189L6.63069 10.72ZM7.65092 9.8886C7.93305 9.70267 8.30643 9.33488 8.62334 8.98374C8.94279 8.62979 9.26537 8.2254 9.42674 7.93745L8.55439 7.44858C8.45003 7.63479 8.19007 7.97128 7.88098 8.31374C7.56935 8.65902 7.2682 8.94319 7.10065 9.05362L7.65092 9.8886ZM9.42674 7.93745C9.55746 7.70419 9.85678 7.18318 10.2121 6.72521C10.3906 6.49525 10.5698 6.29878 10.7356 6.16427C10.9133 6.02009 11.0106 6 11.0346 6V5C10.6651 5 10.3434 5.19477 10.1056 5.38769C9.85584 5.59028 9.62306 5.85316 9.42207 6.11218C9.0186 6.63217 8.68939 7.20767 8.55439 7.44858L9.42674 7.93745ZM11.0346 6C10.9913 6 10.9887 5.98301 11.0359 6.01603C11.0822 6.04841 11.1485 6.10985 11.2314 6.21258C11.3974 6.41816 11.5791 6.72507 11.7618 7.09969C12.125 7.84434 12.4497 8.76776 12.6376 9.44647L13.6014 9.17964C13.4009 8.45561 13.0562 7.47251 12.6606 6.66131C12.4639 6.25801 12.2438 5.87467 12.0095 5.58448C11.8924 5.43933 11.759 5.3015 11.609 5.19658C11.4599 5.09231 11.2644 5 11.0346 5V6ZM12.6376 9.44647C12.9538 10.5884 14.033 13.7325 14.528 15.1483L15.472 14.8182C14.9723 13.3891 13.9066 10.282 13.6014 9.17964L12.6376 9.44647ZM15.2802 14.5692C15.0594 14.4198 14.6983 14.1997 14.3167 14.0147C13.9589 13.8413 13.4942 13.6535 13.0991 13.6535V14.6535C13.2436 14.6535 13.5249 14.7423 13.8805 14.9146C14.2122 15.0753 14.5318 15.2702 14.7198 15.3974L15.2802 14.5692ZM13.0991 13.6535C12.6594 13.6535 12.1504 13.8031 11.6848 14.0461C11.2143 14.2916 10.7453 14.6545 10.4048 15.1247L11.2147 15.7112C11.4466 15.391 11.7849 15.1218 12.1474 14.9326C12.5147 14.7409 12.8642 14.6535 13.0991 14.6535V13.6535ZM10.4048 15.1247C9.83676 15.909 8.89986 17.0412 8.50885 17.4011L9.18612 18.1369C9.6536 17.7065 10.6381 16.5074 11.2147 15.7112L10.4048 15.1247ZM8.50885 17.4011C8.10104 17.7765 7.76565 17.9675 7.57803 18.0158L7.82763 18.9842C8.25322 18.8745 8.73544 18.5517 9.18612 18.1369L8.50885 17.4011ZM8.132 18.2435C8.00998 18.0393 7.87817 17.7793 7.72099 17.4697C7.56722 17.167 7.39366 16.8261 7.19838 16.4871C6.81371 15.8194 6.31133 15.0972 5.62801 14.6453L5.07639 15.4794C5.55816 15.798 5.96538 16.3501 6.33188 16.9863C6.51219 17.2993 6.67462 17.6178 6.82937 17.9225C6.98071 18.2205 7.12995 18.5161 7.27366 18.7565L8.132 18.2435ZM5.62801 14.6453C4.54508 13.9291 2.94561 12.939 2.28605 12.479L1.71395 13.2992C2.37619 13.7611 4.05314 14.8026 5.07639 15.4794L5.62801 14.6453ZM4.88329 14.8834C5.20881 14.6291 5.72147 14.2146 6.20606 13.7944C6.67682 13.3862 7.16496 12.9355 7.40576 12.6189L6.60987 12.0135C6.44186 12.2343 6.03404 12.62 5.55092 13.0389C5.08163 13.4459 4.58249 13.8494 4.26754 14.0955L4.88329 14.8834ZM7.40576 12.6189C7.66563 12.2773 8.23523 11.5076 8.76535 10.6577C9.03034 10.2328 9.28981 9.78107 9.49651 9.34803C9.69972 8.92231 9.86769 8.48266 9.92475 8.08959L8.93513 7.94592C8.89967 8.19015 8.78249 8.52249 8.59405 8.91726C8.4091 9.30472 8.17041 9.72196 7.91687 10.1284C7.40995 10.9412 6.861 11.6834 6.60987 12.0135L7.40576 12.6189ZM9.92475 8.08959C10.0939 6.92473 10.3858 6.43715 10.6694 6.22534L10.071 5.42414C9.45521 5.88406 9.11343 6.71771 8.93513 7.94592L9.92475 8.08959ZM4.95648 11.832L6.34642 12.8396L6.93335 12.0299L5.54341 11.0223L4.95648 11.832Z" fill="#333333"/>
<path d="M10 19.5H13.5V23C13.5 23.2761 13.7239 23.5 14 23.5H18C18.2761 23.5 18.5 23.2761 18.5 23V19.5H22C22.2761 19.5 22.5 19.2761 22.5 19V15C22.5 14.7239 22.2761 14.5 22 14.5H18.5V11C18.5 10.7239 18.2761 10.5 18 10.5H14C13.7239 10.5 13.5 10.7239 13.5 11V14.5H10C9.72386 14.5 9.5 14.7239 9.5 15V19C9.5 19.2761 9.72386 19.5 10 19.5Z" fill="#FFEF91" stroke="#674C06"/>
</svg>
